<svg aria-hidden="true" focusable="false" role="presentation" xmlns="http://www.w3.org/2000/svg" class="t4s-d-none"><defs>
  <symbol id="t4s-icon-btn" viewBox="0 0 14 10" fill="none">
    <path fill-rule="evenodd" clip-rule="evenodd" d="M8.537.808a.5.5 0 01.817-.162l4 4a.5.5 0 010 .708l-4 4a.5.5 0 11-.708-.708L11.793 5.5H1a.5.5 0 010-1h10.793L8.646 1.354a.5.5 0 01-.109-.546z" fill="currentColor">
  </path></symbol>
  <symbol id="t4s-icon-loading" viewBox="0 0 100 100" fill="none">
    <path xmlns="http://www.w3.org/2000/svg" fill="none" d="M24.3,30C11.4,30,5,43.3,5,50s6.4,20,19.3,20c19.3,0,32.1-40,51.4-40 C88.6,30,95,43.3,95,50s-6.4,20-19.3,20C56.4,70,43.6,30,24.3,30z" stroke="currentColor" stroke-width="2" stroke-dasharray="205.271142578125 51.317785644531256"><animate attributeName="stroke-dashoffset" calcMode="linear" values="0;256.58892822265625" keyTimes="0;1" dur="1" begin="0s" repeatCount="indefinite"/></path>
  </symbol>
  <symbol id="t4s-icon-search" viewBox="0 0 18 19" fill="none">
    <svg xmlns="http://www.w3.org/2000/svg" width="24" height="24" viewBox="0 0 24 24" fill="none" stroke="currentColor" stroke-width="2" stroke-linecap="round" stroke-linejoin="round" class="feather feather-search"><circle cx="11" cy="11" r="8"/><line x1="21" y1="21" x2="16.65" y2="16.65"/></svg>  
  </symbol>
  <symbol id="t4s-icon-close" class="icon icon-close" fill="none" viewBox="0 0 18 17">
   <svg xmlns="http://www.w3.org/2000/svg" width="24" height="24" viewBox="0 0 24 24" fill="none" stroke="currentColor" stroke-width="2" stroke-linecap="round" stroke-linejoin="round" class="feather feather-x"><line x1="18" y1="6" x2="6" y2="18"/><line x1="6" y1="6" x2="18" y2="18"/></svg></symbol>
  <symbol id="t4s-icon-atc">
   <svg xmlns="http://www.w3.org/2000/svg" width="24" height="24" viewBox="0 0 24 24" fill="none" stroke="currentColor" stroke-width="2" stroke-linecap="round" stroke-linejoin="round" class="feather feather-shopping-bag"><path d="M6 2L3 6v14a2 2 0 0 0 2 2h14a2 2 0 0 0 2-2V6l-3-4z"/><line x1="3" y1="6" x2="21" y2="6"/><path d="M16 10a4 4 0 0 1-8 0"/></svg></symbol>
  <symbol id="t4s-icon-qv">
    <svg xmlns="http://www.w3.org/2000/svg" width="24" height="24" viewBox="0 0 24 24" fill="none" stroke="currentColor" stroke-width="1.5" stroke-linecap="round" stroke-linejoin="round"><path d="M1 12s4-8 11-8 11 8 11 8-4 8-11 8-11-8-11-8z"/><circle cx="12" cy="12" r="3"/></svg>
  </symbol>
  <symbol id="t4s-icon-cp">
    <svg xmlns="http://www.w3.org/2000/svg" width="24" height="24" viewBox="0 0 24 24" fill="none" stroke="currentColor" stroke-width="1.5" stroke-linecap="round" stroke-linejoin="round"><polyline points="16 3 21 3 21 8"/><line x1="4" y1="20" x2="21" y2="3"/><polyline points="21 16 21 21 16 21"/><line x1="15" y1="15" x2="21" y2="21"/><line x1="4" y1="4" x2="9" y2="9"/></svg>
  </symbol>
  <symbol id="t4s-icon-cp-added">
   <svg xmlns="http://www.w3.org/2000/svg" viewBox="0 0 24 24" width="24" height="24" stroke="currentColor" stroke-width="1.5" fill="none" stroke-linecap="round" stroke-linejoin="round" class="css-i6dzq1"><path d="M22 11.08V12a10 10 0 1 1-5.93-9.14"/><polyline points="22 4 12 14.01 9 11.01"/></svg>
  </symbol>
  <symbol id="t4s-icon-wis">
    <svg xmlns="http://www.w3.org/2000/svg" width="24" height="24" viewBox="0 0 24 24" fill="none" stroke="currentColor" stroke-width="1.5" stroke-linecap="round" stroke-linejoin="round"><path d="M20.84 4.61a5.5 5.5 0 0 0-7.78 0L12 5.67l-1.06-1.06a5.5 5.5 0 0 0-7.78 7.78l1.06 1.06L12 21.23l7.78-7.78 1.06-1.06a5.5 5.5 0 0 0 0-7.78z"/></svg>
  </symbol>
  <symbol id="t4s-icon-wis-added">
    <svg xmlns="http://www.w3.org/2000/svg" width="24" height="24" viewBox="0 0 24 24" fill="currentColor" stroke="currentColor" stroke-width="1.5" stroke-linecap="round" stroke-linejoin="round"><path d="M20.84 4.61a5.5 5.5 0 0 0-7.78 0L12 5.67l-1.06-1.06a5.5 5.5 0 0 0-7.78 7.78l1.06 1.06L12 21.23l7.78-7.78 1.06-1.06a5.5 5.5 0 0 0 0-7.78z"/></svg>
  </symbol>
  <symbol id="t4s-icon-wis-remove">
    <svg xmlns="http://www.w3.org/2000/svg" width="24" height="24" viewBox="0 0 24 24" fill="none" stroke="currentColor" stroke-width="2" stroke-linecap="round" stroke-linejoin="round" class="feather feather-x"><line x1="18" y1="6" x2="6" y2="18"/><line x1="6" y1="6" x2="18" y2="18"/></svg>
  </symbol>
  <symbol id="t4s-icon-external">
    <svg xmlns="http://www.w3.org/2000/svg" width="24" height="24" viewBox="0 0 24 24" fill="none" stroke="currentColor" stroke-width="1.5" stroke-linecap="round" stroke-linejoin="round"><path d="M18 13v6a2 2 0 0 1-2 2H5a2 2 0 0 1-2-2V8a2 2 0 0 1 2-2h6"/><polyline points="15 3 21 3 21 9"/><line x1="10" y1="14" x2="21" y2="3"/></svg>
  </symbol>
  <symbol id="t4s-icon-link">
    <svg xmlns="http://www.w3.org/2000/svg" width="24" height="24" viewBox="0 0 24 24" fill="none" stroke="currentColor" stroke-width="1.5" stroke-linecap="round" stroke-linejoin="round" class="feather feather-link-2"><path d="M15 7h3a5 5 0 0 1 5 5 5 5 0 0 1-5 5h-3m-6 0H6a5 5 0 0 1-5-5 5 5 0 0 1 5-5h3"/><line x1="8" y1="12" x2="16" y2="12"/></svg>
  </symbol>
  <symbol id="t4s-select-arrow"> 
    <svg xmlns="http://www.w3.org/2000/svg" viewBox="0 0 19 12"><polyline fill="none" stroke="currentColor" points="17 2 9.5 10 2 2" fill-rule="evenodd" stroke-width="2" stroke-linecap="square"/></svg>
  </symbol>
  <symbol id="t4s-icon-blockquote"> 
    <svg xmlns="http://www.w3.org/2000/svg" viewBox="0 0 32 32">
        <polygon fill="currentColor" points="0,4 0,28 12,16 12,4"/>
        <polygon fill="currentColor" points="20,4 20,28 32,16 32,4"/>
    </svg>
  </symbol>
</defs></svg>