<svg xmlns="http://www.w3.org/2000/svg" class="t4s-d-none">
		<symbol id="icon-h-search" fill="none" stroke="currentColor" stroke-width="2" stroke-linecap="round" stroke-linejoin="round" viewBox="0 0 24 24">
			<circle cx="11" cy="11" r="8"/>
			<path d="M21 21l-4.35-4.35"/>
		</symbol>
		<symbol id="icon-h-account" fill="none" stroke="currentColor" stroke-width="2" stroke-linecap="round" stroke-linejoin="round" viewBox="0 0 24 24">
			<path d="M20 21v-2a4 4 0 0 0-4-4H8a4 4 0 0 0-4 4v2"/>
			<circle cx="12" cy="7" r="4"/>
		</symbol>

		<symbol id="icon-h-heart" fill="none" stroke="currentColor" stroke-width="2" stroke-linecap="round" stroke-linejoin="round" viewBox="0 0 25 25">
			<path d="M20.84 4.61a5.5 5.5 0 0 0-7.78 0L12 5.67l-1.06-1.06a5.5 5.5 0 0 0-7.78 7.78l1.06 1.06L12 21.23l7.78-7.78 1.06-1.06a5.5 5.5 0 0 0 0-7.78z"/>
		</symbol> 

		<symbol id="icon-h-cart" fill="none" stroke="currentColor" stroke-width="2" stroke-linecap="round" stroke-linejoin="round" viewBox="0 0 26 26">
 			<path d="M6 2L3 6v14a2 2 0 0 0 2 2h14a2 2 0 0 0 2-2V6l-3-4zM3 6h18M16 10a4 4 0 0 1-8 0"/>
 		</symbol>
 		<symbol id="icon-h-compare" viewBox="0 0 551.127 551.127"> 
		 	<path d="M482.21 378.9h-62.607c-21.882 0-42.754-8.208-58.749-23.143l-85.906-80.179 85.939-80.208c15.978-14.935 36.851-23.143 58.749-23.143h62.601v34.446l68.889-51.668-68.889-51.668v34.446h-62.601c-30.661 0-59.876 11.504-82.262 32.427L138.622 355.723c-16.029 14.935-36.868 23.177-58.716 23.177H.032v34.378l79.74.034h.151c30.577 0 59.758-11.504 82.195-32.427l87.592-81.752 87.63 81.785c22.403 20.923 51.618 32.427 82.262 32.427h62.607v34.446l68.889-51.666-68.889-51.671.001 34.446zM79.908 172.26c21.831 0 42.67 8.208 58.665 23.143l60.652 56.609 25.237-23.553-62.376-58.217c-22.403-20.923-51.584-32.427-82.161-32.427h-.151L0 137.848v34.378h79.79c.051.001.084.034.118.034z"/>
		</symbol>
	</svg>