<svg xmlns="http://www.w3.org/2000/svg" width="24" height="24" viewBox="0 0 800 800" fill="none">
<path d="M375.636 147.04C383.353 129.727 387.213 121.071 392.586 118.405C397.253 116.089 402.733 116.089 407.399 118.405C412.773 121.071 416.633 129.727 424.349 147.04L485.816 284.937C488.099 290.055 489.239 292.614 491.006 294.574C492.566 296.308 494.476 297.695 496.606 298.644C499.016 299.718 501.803 300.012 507.376 300.6L657.519 316.447C676.369 318.436 685.793 319.431 689.989 323.717C693.633 327.44 695.326 332.653 694.566 337.808C693.693 343.741 686.653 350.085 672.573 362.775L560.416 463.848C556.256 467.598 554.173 469.475 552.856 471.758C551.689 473.781 550.959 476.025 550.716 478.345C550.439 480.968 551.019 483.708 552.183 489.191L583.509 636.881C587.443 655.425 589.409 664.695 586.629 670.008C584.213 674.628 579.779 677.848 574.643 678.718C568.729 679.718 560.519 674.985 544.099 665.515L413.316 590.081C408.463 587.281 406.036 585.885 403.456 585.335C401.173 584.851 398.813 584.851 396.529 585.335C393.949 585.885 391.523 587.281 386.669 590.081L255.887 665.515C239.467 674.985 231.258 679.718 225.344 678.718C220.207 677.848 215.772 674.628 213.358 670.008C210.578 664.695 212.544 655.425 216.477 636.881L247.803 489.191C248.965 483.708 249.547 480.968 249.271 478.345C249.026 476.025 248.297 473.781 247.131 471.758C245.812 469.475 243.731 467.598 239.569 463.848L127.415 362.775C113.334 350.085 106.294 343.741 105.419 337.808C104.659 332.653 106.352 327.44 109.997 323.717C114.193 319.431 123.618 318.436 142.468 316.447L292.611 300.6C298.184 300.012 300.97 299.718 303.379 298.644C305.511 297.695 307.419 296.308 308.981 294.574C310.746 292.614 311.887 290.055 314.169 284.937L375.636 147.04Z" fill="#3C3C42"/>
</svg>