<svg xmlns="http://www.w3.org/2000/svg" class="t4s-d-none">
<symbol id="icon-cart-remove" viewBox="0 0 24 24" stroke="currentColor" fill="none" stroke-linecap="round" stroke-linejoin="round">
  <polyline points="3 6 5 6 21 6"/><path d="M19 6v14a2 2 0 0 1-2 2H7a2 2 0 0 1-2-2V6m3 0V4a2 2 0 0 1 2-2h4a2 2 0 0 1 2 2v2"/><line x1="10" y1="11" x2="10" y2="17"/><line x1="14" y1="11" x2="14" y2="17"/>
</symbol>
<symbol id="icon-cart-edit" viewBox="0 0 24 24" stroke="currentColor" fill="none" stroke-linecap="round" stroke-linejoin="round">
  <path d="M11 4H4a2 2 0 0 0-2 2v14a2 2 0 0 0 2 2h14a2 2 0 0 0 2-2v-7"/><path d="M18.5 2.5a2.121 2.121 0 0 1 3 3L12 15l-4 1 1-4 9.5-9.5z"/>
</symbol>
<symbol id="icon-cart-tag" viewBox="0 0 448 512">
  <path d="M48 32H197.5C214.5 32 230.7 38.74 242.7 50.75L418.7 226.7C443.7 251.7 443.7 292.3 418.7 317.3L285.3 450.7C260.3 475.7 219.7 475.7 194.7 450.7L18.75 274.7C6.743 262.7 0 246.5 0 229.5V80C0 53.49 21.49 32 48 32L48 32zM112 176C129.7 176 144 161.7 144 144C144 126.3 129.7 112 112 112C94.33 112 80 126.3 80 144C80 161.7 94.33 176 112 176z"/>
</symbol>
<symbol id="icon-cart-spinner" viewBox="0 0 66 66">
  <circle class="t4s-path" fill="none" stroke-width="6" cx="33" cy="33" r="30"/>
</symbol>
<symbol id="icon-cart-check" viewBox="0 0 448 512">
  <path d="M443.3 100.7C449.6 106.9 449.6 117.1 443.3 123.3L171.3 395.3C165.1 401.6 154.9 401.6 148.7 395.3L4.686 251.3C-1.562 245.1-1.562 234.9 4.686 228.7C10.93 222.4 21.06 222.4 27.31 228.7L160 361.4L420.7 100.7C426.9 94.44 437.1 94.44 443.3 100.7H443.3z"/>
</symbol>
<symbol id="icon-cart-selected" viewBox="0 0 24 24">
<path d="M9 20l-7-7 3-3 4 4L19 4l3 3z"/>
</symbol>
</svg>